HIERARCHY
ROOT Hips
{
	OFFSET 0.000000 0.000000 0.000000
	CHANNELS 6 Xposition Yposition Zposition Zrotation Yrotation Xrotation 
	JOINT LHipJoint
	{
		OFFSET 0.000000 0.000000 0.000000
		CHANNELS 3 Zrotation Yrotation Xrotation
		JOINT LeftUpLeg
		{
			OFFSET 1.363060 -1.794630 0.839290
			CHANNELS 3 Zrotation Yrotation Xrotation
			JOINT LeftLeg
			{
				OFFSET 2.448110 -6.726130 0.000000
				CHANNELS 3 Zrotation Yrotation Xrotation
				JOINT LeftFoot
				{
					OFFSET 2.562200 -7.039590 0.000000
					CHANNELS 3 Zrotation Yrotation Xrotation
					JOINT LeftToeBase
					{
						OFFSET 0.157640 -0.433110 2.322550
						CHANNELS 3 Zrotation Yrotation Xrotation
						End Site
						{
							OFFSET 0.000000 0.000000 0.000000
						}
					}
				}
			}
		}
	}
	JOINT RHipJoint
	{
		OFFSET 0.000000 0.000000 0.000000
		CHANNELS 3 Zrotation Yrotation Xrotation
		JOINT RightUpLeg
		{
			OFFSET -1.305520 -1.794630 0.839290
			CHANNELS 3 Zrotation Yrotation Xrotation
			JOINT RightLeg
			{
				OFFSET -2.542530 -6.985550 0.000000
				CHANNELS 3 Zrotation Yrotation Xrotation
				JOINT RightFoot
				{
					OFFSET -2.568260 -7.056230 0.000000
					CHANNELS 3 Zrotation Yrotation Xrotation
					JOINT RightToeBase
					{
						OFFSET -0.164730 -0.452590 2.363150
						CHANNELS 3 Zrotation Yrotation Xrotation
						End Site
						{
							OFFSET 0.000000 0.000000 0.000000
						}
					}
				}
			}
		}
	}
	JOINT LowerBack
	{
		OFFSET 0.000000 0.000000 0.000000
		CHANNELS 3 Zrotation Yrotation Xrotation
		JOINT Spine
		{
			OFFSET 0.028270 2.035590 -0.193380
			CHANNELS 3 Zrotation Yrotation Xrotation
			JOINT Spine1
			{
				OFFSET 0.056720 2.048850 -0.042750
				CHANNELS 3 Zrotation Yrotation Xrotation
				JOINT Neck
				{
					OFFSET 0.000000 0.000000 0.000000
					CHANNELS 3 Zrotation Yrotation Xrotation
					JOINT Neck1
					{
						OFFSET -0.054170 1.746240 0.172020
						CHANNELS 3 Zrotation Yrotation Xrotation
						JOINT Head
						{
							OFFSET 0.104070 1.761360 -0.123970
							CHANNELS 3 Zrotation Yrotation Xrotation
							End Site
							{
								OFFSET 0.000000 0.000000 0.000000
							}
						}
					}
				}
				JOINT LeftShoulder
				{
					OFFSET 0.000000 0.000000 0.000000
					CHANNELS 3 Zrotation Yrotation Xrotation
					JOINT LeftArm
					{
						OFFSET 3.362410 1.200890 -0.311210
						CHANNELS 3 Zrotation Yrotation Xrotation
						JOINT LeftForeArm
						{
							OFFSET 4.983000 -0.000000 -0.000000
							CHANNELS 3 Zrotation Yrotation Xrotation
							JOINT LeftHand
							{
								OFFSET 3.483560 -0.000000 -0.000000
								CHANNELS 3 Zrotation Yrotation Xrotation
								JOINT LeftFingerBase
								{
									OFFSET 0.000000 0.000000 0.000000
									CHANNELS 3 Zrotation Yrotation Xrotation
									JOINT LeftHandIndex1
									{
										OFFSET 0.715260 -0.000000 -0.000000
										CHANNELS 3 Zrotation Yrotation Xrotation
										End Site
										{
											OFFSET 0.000000 0.000000 0.000000
										}
									}
								}
								JOINT LThumb
								{
									OFFSET 0.000000 0.000000 0.000000
									CHANNELS 3 Zrotation Yrotation Xrotation
									End Site
									{
										OFFSET 0.000000 0.000000 0.000000
									}
								}
							}
						}
					}
				}
				JOINT RightShoulder
				{
					OFFSET 0.000000 0.000000 0.000000
					CHANNELS 3 Zrotation Yrotation Xrotation
					JOINT RightArm
					{
						OFFSET -3.136600 1.374050 -0.404650
						CHANNELS 3 Zrotation Yrotation Xrotation
						JOINT RightForeArm
						{
							OFFSET -5.241900 -0.000000 -0.000000
							CHANNELS 3 Zrotation Yrotation Xrotation
							JOINT RightHand
							{
								OFFSET -3.444170 -0.000000 -0.000000
								CHANNELS 3 Zrotation Yrotation Xrotation
								JOINT RightFingerBase
								{
									OFFSET 0.000000 0.000000 0.000000
									CHANNELS 3 Zrotation Yrotation Xrotation
									JOINT RightHandIndex1
									{
										OFFSET -0.622530 -0.000000 -0.000000
										CHANNELS 3 Zrotation Yrotation Xrotation
										End Site
										{
											OFFSET 0.000000 0.000000 0.000000
										}
									}
								}
								JOINT RThumb
								{
									OFFSET 0.000000 0.000000 0.000000
									CHANNELS 3 Zrotation Yrotation Xrotation
									End Site
									{
										OFFSET 0.000000 0.000000 0.000000
									}
								}
							}
						}
					}
				}
			}
		}
	}
}
MOTION
Frames: 4
Frame Time: 0.008333
2.388880 16.534583 -1.138774 -175.353358 -80.202646 -158.961027 -8.924025 -0.986570 0.451942 -12.495997 0.317182 -54.841882 -2.783006 1.009206 23.010346 0.448561 2.299008 2.780305 0.889300 0.000001 -21.856300 10.994601 -2.334375 -3.246415 2.166635 -7.495384 -10.017572 1.255493 -2.561939 32.872217 0.669694 11.270477 10.983397 3.292001 -0.000000 -88.024700 -7.296840 1.557509 4.406112 -2.857283 1.850237 -2.317341 -7.961535 1.724341 0.041286 9.444073 7.904542 5.269628 -5.068702 -0.446900 2.927364 0.000000 0.000000 0.000000 -5.534045 -3.086973 2.626025 -51.652784 -7.218842 14.061522 -4.166355 -21.570725 -0.001884 1.028429 1.276224 0.013255 -0.122190 0.003998 -0.000000 0.000000 0.000000 0.000000 0.000000 0.000000 0.000000 21.755278 7.118961 -0.452289 71.349733 23.890241 23.987072 1.973923 35.818232 0.005941 3.700772 9.010143 0.299950 -0.032233 -0.164728 0.000000 0.000000 0.000000 0.000000 0.000000 0.000000 0.000000 
2.214762 16.516623 -1.155428 -178.212629 -80.283017 -156.219231 -8.842681 -1.017132 0.220179 -13.108352 0.192953 -55.107808 -2.665816 1.218742 25.518713 0.531158 2.716421 2.256850 0.930000 0.000000 -20.847700 11.240306 -2.319019 -3.252819 1.286768 -7.686039 -10.928203 1.039762 -2.793388 35.253786 0.554417 11.557306 12.700677 3.771000 0.000000 -87.858100 -8.072993 1.523301 4.602601 -3.029151 1.846560 -2.286767 -8.012007 1.721109 -0.023162 9.572924 8.124001 5.552911 -5.101284 -0.449989 2.984317 0.000000 0.000000 0.000000 -5.552062 -3.640840 2.674028 -51.233663 -7.695749 13.694904 -4.231335 -20.450305 -0.002209 1.187537 1.378296 0.016141 -0.122187 0.007363 -0.000000 0.000000 0.000000 0.000000 0.000000 0.000000 0.000000 22.029820 7.178894 -0.523544 71.855249 23.660516 22.447782 1.929594 35.063910 0.004819 3.377741 9.332351 0.283744 -0.033139 -0.167114 0.000000 0.000000 0.000000 0.000000 0.000000 0.000000 0.000000 
2.046120 16.508199 -1.168679 179.237905 -80.342962 -153.779575 -8.734720 -1.051138 -0.001664 -13.633007 0.012005 -55.141711 -2.560803 1.365532 27.659159 0.622104 3.142081 1.419684 0.943400 0.000000 -20.370100 11.486361 -2.270906 -3.259065 0.497740 -7.745575 -11.898181 0.814178 -3.013514 37.678540 0.405426 11.630753 14.620244 4.241899 0.000000 -86.902100 -8.723819 1.507948 4.825497 -3.173196 1.856591 -2.246460 -8.037694 1.732500 -0.083814 9.580372 8.355993 5.859907 -5.119354 -0.452311 3.047331 0.000000 0.000000 0.000000 -5.619094 -4.237617 2.715351 -50.912218 -8.305788 13.127322 -4.292033 -19.144656 -0.002669 1.375592 1.518631 0.020126 -0.121440 0.012490 -0.000000 0.000000 0.000000 0.000000 0.000000 0.000000 0.000000 22.110302 7.250373 -0.604354 72.448608 23.455555 20.714484 1.882886 34.192437 0.003508 2.925019 9.659296 0.254640 -0.032559 -0.169050 0.000000 0.000000 0.000000 0.000000 0.000000 0.000000 0.000000 
1.882437 16.508762 -1.177363 177.114050 -80.372224 -151.763551 -8.615741 -1.083186 -0.210636 -14.058261 -0.198326 -54.951109 -2.474024 1.457759 29.420433 0.720858 3.566080 0.322862 0.923299 0.000000 -20.363100 11.714963 -2.189217 -3.268942 -0.176411 -7.685559 -12.901844 0.586745 -3.215086 40.112619 0.226115 11.457153 16.673985 4.654100 -0.000001 -85.120700 -9.231191 1.513048 5.071946 -3.285517 1.881397 -2.193308 -8.040630 1.760264 -0.124305 9.459248 8.607870 6.171604 -5.124193 -0.453700 3.111291 0.000000 0.000000 0.000000 -5.745022 -4.759631 2.745420 -50.695819 -9.186746 12.407920 -4.348524 -17.595489 -0.003270 1.612046 1.682649 0.025507 -0.120099 0.019798 -0.000000 0.000000 0.000000 0.000000 0.000000 0.000000 0.000000 21.994789 7.346353 -0.699326 73.102506 23.280929 18.826228 1.833779 33.242010 0.002067 2.361165 9.970172 0.212535 -0.030631 -0.170343 0.000000 0.000000 0.000000 0.000000 0.000000 0.000000 0.000000 
